{
  "source": "C:\\Users\\mbnyau\\Desktop\\stuff\\MIUN\\quantitative_research\\video_compression\\videos\\UVG\\Jockey_1920x1080_120fps_420_8bit_YUV.y4m",
  "output": "C:\\Users\\mbnyau\\Desktop\\stuff\\MIUN\\quantitative_research\\video_compression\\compressed_videos\\UVG\\hevc\\3\\Jockey_1920x1080_120fps_420_8bit_YUV_hevc.mp4",
  "codec": "hevc",
  "ok": "[yuv4mpegpipe @ 0000014baa476a40] Stream #0: not enough frames to estimate rate; consider increasing probesize\nInput #0, yuv4mpegpipe, from 'C:\\Users\\mbnyau\\Desktop\\stuff\\MIUN\\quantitative_research\\video_compression\\videos\\UVG\\Jockey_1920x1080_120fps_420_8bit_YUV.y4m':\n  Duration: 00:00:05.00, start: 0.000000, bitrate: 2985989 kb/s\n  Stream #0:0: Video: rawvideo (I420 / 0x30323449), yuv420p(progressive), 1920x1080, 120 fps, 120 tbr, 120 tbn\n[out#0/mp4 @ 0000014baa477a80] Codec AVOption b:a (set bitrate (in bits/s)) has not been used for any stream. The most likely reason is either wrong type (e.g. a video option with no video streams) or that it is a private option of some decoder which was not actually used for any stream.\nStream mapping:\n  Stream #0:0 -> #0:0 (rawvideo (native) -> hevc (libx265))\nPress [q] to stop, [?] for help\n[libx265 @ 0000014baa47d600] Unknown option: \"aq-mode.\nx265 [info]: HEVC encoder version 4.1+190-8f11c33ac\nx265 [info]: build info [Windows][GCC 15.1.0][64 bit] 10bit\nx265 [info]: using cpu capabilities: MMX2 SSE2Fast LZCNT SSSE3 SSE4.2 AVX FMA3 BMI2 AVX2\nx265 [info]: Main 10 profile, Level-5 (Main tier)\nx265 [info]: Thread pool created using 12 threads\nx265 [info]: Slices                              : 1\nx265 [info]: frame threads / pool features       : 3 / wpp(17 rows)\nx265 [info]: Coding QT: max CU size, min CU size : 64 / 8\nx265 [info]: Residual QT: max TU size, max depth : 32 / 1 inter / 1 intra\nx265 [info]: ME / range / subpel / merge         : star / 57 / 3 / 3\nx265 [info]: Keyframe min / max / scenecut / bias  : 25 / 250 / 40 / 5.00 \nx265 [info]: Lookahead / bframes / badapt        : 25 / 4 / 2\nx265 [info]: b-pyramid / weightp / weightb       : 1 / 1 / 0\nx265 [info]: References / ref-limit  cu / depth  : 4 / on / on\nx265 [info]: AQ: mode / str / qg-size / cu-tree  : 2 / 1.0 / 32 / 1\nx265 [info]: Rate Control / qCompress            : ABR-3000 kbps / 0.60\nx265 [info]: VBV/HRD buffer / max-rate / init    : 3000 / 3000 / 0.750\nx265 [info]: tools: rect limit-modes rd=4 psy-rd=2.00 rdoq=2 psy-rdoq=1.00\nx265 [info]: tools: rskip mode=1 signhide tmvp strong-intra-smoothing lslices=4\nx265 [info]: tools: deblock sao dhdr10-info\nOutput #0, mp4, to 'C:\\Users\\mbnyau\\Desktop\\stuff\\MIUN\\quantitative_research\\video_compression\\compressed_videos\\UVG\\hevc\\3\\Jockey_1920x1080_120fps_420_8bit_YUV_hevc.mp4':\n  Metadata:\n    encoder         : Lavf62.3.100\n  Stream #0:0: Video: hevc (hev1 / 0x31766568), yuv420p10le(tv, progressive), 1920x1080, q=2-31, 3000 kb/s, 120 fps, 15360 tbn\n    Metadata:\n      encoder         : Lavc62.11.100 libx265\n    Side data:\n      cpb: bitrate max/min/avg: 3000000/0/3000000 buffer size: 3000000 vbv_delay: N/A\nframe=    0 fps=0.0 q=0.0 size=       0KiB time=N/A bitrate=N/A speed=N/A elapsed=0:00:00.52    \nframe=    7 fps=6.7 q=45.0 size=       0KiB time=00:00:00.04 bitrate=   8.4kbits/s speed=0.0401x elapsed=0:00:01.04    \nframe=   15 fps=9.6 q=37.2 size=       0KiB time=00:00:00.10 bitrate=   3.2kbits/s speed=0.0696x elapsed=0:00:01.55    \nframe=   24 fps= 12 q=40.9 size=       0KiB time=00:00:00.18 bitrate=   1.9kbits/s speed=0.089x elapsed=0:00:02.06    \nframe=   31 fps= 12 q=39.8 size=       0KiB time=00:00:00.24 bitrate=   1.5kbits/s speed=0.0938x elapsed=0:00:02.57    \nframe=   38 fps= 12 q=39.7 size=       0KiB time=00:00:00.30 bitrate=   1.2kbits/s speed=0.097x elapsed=0:00:03.09    \nframe=   46 fps= 13 q=38.8 size=       0KiB time=00:00:00.36 bitrate=   1.0kbits/s speed=0.102x elapsed=0:00:03.60    \nframe=   53 fps= 13 q=38.7 size=       0KiB time=00:00:00.42 bitrate=   0.8kbits/s speed=0.103x elapsed=0:00:04.12    \nframe=   60 fps= 13 q=37.7 size=       0KiB time=00:00:00.48 bitrate=   0.7kbits/s speed=0.104x elapsed=0:00:04.64    \nframe=   67 fps= 13 q=38.7 size=       0KiB time=00:00:00.54 bitrate=   0.6kbits/s speed=0.105x elapsed=0:00:05.16    \nframe=   74 fps= 13 q=38.7 size=       0KiB time=00:00:00.60 bitrate=   0.6kbits/s speed=0.106x elapsed=0:00:05.67    \nframe=   81 fps= 13 q=38.7 size=       0KiB time=00:00:00.65 bitrate=   0.5kbits/s speed=0.106x elapsed=0:00:06.19    \nframe=   88 fps= 13 q=37.1 size=       0KiB time=00:00:00.71 bitrate=   0.5kbits/s speed=0.107x elapsed=0:00:06.71    \nframe=   95 fps= 13 q=37.5 size=     256KiB time=00:00:00.77 bitrate=2706.5kbits/s speed=0.107x elapsed=0:00:07.22    \nframe=  102 fps= 13 q=34.1 size=     256KiB time=00:00:00.83 bitrate=2517.0kbits/s speed=0.108x elapsed=0:00:07.74    \nframe=  108 fps= 13 q=34.3 size=     256KiB time=00:00:00.88 bitrate=2374.5kbits/s speed=0.107x elapsed=0:00:08.25    \nframe=  114 fps= 13 q=34.5 size=     256KiB time=00:00:00.93 bitrate=2247.3kbits/s speed=0.106x elapsed=0:00:08.77    \nframe=  119 fps= 13 q=39.8 size=     256KiB time=00:00:00.97 bitrate=2151.3kbits/s speed=0.105x elapsed=0:00:09.28    \nframe=  124 fps= 13 q=39.7 size=     256KiB time=00:00:01.01 bitrate=2063.1kbits/s speed=0.104x elapsed=0:00:09.80    \nframe=  130 fps= 13 q=40.5 size=     256KiB time=00:00:01.06 bitrate=1966.4kbits/s speed=0.103x elapsed=0:00:10.32    \nframe=  135 fps= 12 q=34.8 size=     256KiB time=00:00:01.10 bitrate=1892.5kbits/s speed=0.102x elapsed=0:00:10.83    \nframe=  141 fps= 12 q=40.5 size=     256KiB time=00:00:01.15 bitrate=1810.8kbits/s speed=0.102x elapsed=0:00:11.35    \nframe=  147 fps= 12 q=38.7 size=     256KiB time=00:00:01.20 bitrate=1735.9kbits/s speed=0.102x elapsed=0:00:11.87    \nframe=  152 fps= 12 q=40.5 size=     256KiB time=00:00:01.25 bitrate=1678.0kbits/s speed=0.101x elapsed=0:00:12.37    \nframe=  156 fps= 12 q=38.9 size=     256KiB time=00:00:01.28 bitrate=1634.4kbits/s speed=0.0996x elapsed=0:00:12.88    \nframe=  162 fps= 12 q=34.1 size=     256KiB time=00:00:01.33 bitrate=1573.1kbits/s speed=0.0994x elapsed=0:00:13.41    \nframe=  167 fps= 12 q=39.0 size=     256KiB time=00:00:01.37 bitrate=1525.5kbits/s speed=0.0988x elapsed=0:00:13.92    \nframe=  173 fps= 12 q=40.6 size=     512KiB time=00:00:01.42 bitrate=2943.6kbits/s speed=0.0987x elapsed=0:00:14.43    \nframe=  178 fps= 12 q=38.9 size=     512KiB time=00:00:01.46 bitrate=2860.0kbits/s speed=0.0981x elapsed=0:00:14.95    \nframe=  183 fps= 12 q=39.1 size=     512KiB time=00:00:01.50 bitrate=2781.0kbits/s speed=0.0975x elapsed=0:00:15.46    \nframe=  189 fps= 12 q=39.0 size=     512KiB time=00:00:01.55 bitrate=2691.8kbits/s speed=0.0975x elapsed=0:00:15.98    \nframe=  194 fps= 12 q=35.2 size=     512KiB time=00:00:01.60 bitrate=2621.7kbits/s speed=0.097x elapsed=0:00:16.50    \nframe=  199 fps= 12 q=39.1 size=     512KiB time=00:00:01.64 bitrate=2555.1kbits/s speed=0.0965x elapsed=0:00:17.01    \nframe=  204 fps= 12 q=39.6 size=     512KiB time=00:00:01.68 bitrate=2491.9kbits/s speed=0.096x elapsed=0:00:17.53    \nframe=  209 fps= 12 q=34.9 size=     512KiB time=00:00:01.72 bitrate=2431.7kbits/s speed=0.0956x elapsed=0:00:18.04    \nframe=  214 fps= 12 q=41.3 size=     512KiB time=00:00:01.76 bitrate=2374.3kbits/s speed=0.0952x elapsed=0:00:18.56    \nframe=  219 fps= 11 q=38.5 size=     512KiB time=00:00:01.80 bitrate=2319.6kbits/s speed=0.0948x elapsed=0:00:19.08    \nframe=  224 fps= 11 q=41.2 size=     512KiB time=00:00:01.85 bitrate=2267.4kbits/s speed=0.0944x elapsed=0:00:19.59    \nframe=  229 fps= 11 q=41.1 size=     512KiB time=00:00:01.89 bitrate=2217.4kbits/s speed=0.0941x elapsed=0:00:20.11    \nframe=  235 fps= 11 q=35.7 size=     512KiB time=00:00:01.94 bitrate=2160.3kbits/s speed=0.0941x elapsed=0:00:20.62    \nframe=  241 fps= 11 q=35.8 size=     512KiB time=00:00:01.99 bitrate=2106.1kbits/s speed=0.0942x elapsed=0:00:21.14    \nframe=  248 fps= 11 q=34.1 size=     512KiB time=00:00:02.05 bitrate=2046.2kbits/s speed=0.0947x elapsed=0:00:21.65    \nframe=  256 fps= 12 q=35.7 size=     768KiB time=00:00:02.11 bitrate=2972.5kbits/s speed=0.0955x elapsed=0:00:22.17    \nframe=  262 fps= 12 q=41.2 size=     768KiB time=00:00:02.16 bitrate=2903.9kbits/s speed=0.0954x elapsed=0:00:22.70    \nframe=  269 fps= 12 q=39.0 size=     768KiB time=00:00:02.22 bitrate=2827.8kbits/s speed=0.0958x elapsed=0:00:23.21    \nframe=  275 fps= 12 q=40.8 size=     768KiB time=00:00:02.27 bitrate=2765.6kbits/s speed=0.0959x elapsed=0:00:23.73    \nframe=  280 fps= 12 q=41.1 size=     768KiB time=00:00:02.31 bitrate=2715.9kbits/s speed=0.0955x elapsed=0:00:24.26    \nframe=  286 fps= 12 q=38.3 size=     768KiB time=00:00:02.36 bitrate=2658.5kbits/s speed=0.0955x elapsed=0:00:24.77    \nframe=  290 fps= 11 q=39.6 size=     768KiB time=00:00:02.40 bitrate=2621.6kbits/s speed=0.0949x elapsed=0:00:25.29    \nframe=  294 fps= 11 q=41.3 size=     768KiB time=00:00:02.43 bitrate=2585.7kbits/s speed=0.0943x elapsed=0:00:25.81    \nframe=  298 fps= 11 q=42.1 size=     768KiB time=00:00:02.46 bitrate=2550.7kbits/s speed=0.0937x elapsed=0:00:26.31    \nframe=  303 fps= 11 q=44.3 size=     768KiB time=00:00:02.50 bitrate=2508.4kbits/s speed=0.0935x elapsed=0:00:26.82    \nframe=  307 fps= 11 q=44.5 size=     768KiB time=00:00:02.54 bitrate=2475.5kbits/s speed=0.0929x elapsed=0:00:27.35    \nframe=  311 fps= 11 q=45.2 size=    1024KiB time=00:00:02.57 bitrate=3257.8kbits/s speed=0.0924x elapsed=0:00:27.87    \nframe=  316 fps= 11 q=47.1 size=    1024KiB time=00:00:02.61 bitrate=3206.0kbits/s speed=0.0922x elapsed=0:00:28.38    \nframe=  321 fps= 11 q=46.4 size=    1024KiB time=00:00:02.65 bitrate=3155.7kbits/s speed=0.092x elapsed=0:00:28.90    \nframe=  326 fps= 11 q=39.8 size=    1024KiB time=00:00:02.70 bitrate=3107.0kbits/s speed=0.0918x elapsed=0:00:29.41    \nframe=  331 fps= 11 q=43.2 size=    1024KiB time=00:00:02.74 bitrate=3059.8kbits/s speed=0.0916x elapsed=0:00:29.93    \nframe=  336 fps= 11 q=45.6 size=    1024KiB time=00:00:02.78 bitrate=3014.0kbits/s speed=0.0914x elapsed=0:00:30.44    \nframe=  342 fps= 11 q=38.5 size=    1024KiB time=00:00:02.83 bitrate=2960.8kbits/s speed=0.0915x elapsed=0:00:30.96    \nframe=  348 fps= 11 q=44.1 size=    1024KiB time=00:00:02.88 bitrate=2909.5kbits/s speed=0.0916x elapsed=0:00:31.47    \nframe=  353 fps= 11 q=38.2 size=    1024KiB time=00:00:02.92 bitrate=2868.0kbits/s speed=0.0914x elapsed=0:00:31.99    \nframe=  359 fps= 11 q=37.9 size=    1024KiB time=00:00:02.97 bitrate=2819.8kbits/s speed=0.0915x elapsed=0:00:32.50    \nframe=  365 fps= 11 q=42.5 size=    1024KiB time=00:00:03.02 bitrate=2773.2kbits/s speed=0.0916x elapsed=0:00:33.02    \nframe=  370 fps= 11 q=42.6 size=    1024KiB time=00:00:03.06 bitrate=2735.5kbits/s speed=0.0914x elapsed=0:00:33.54    \nframe=  377 fps= 11 q=42.8 size=    1024KiB time=00:00:03.12 bitrate=2684.5kbits/s speed=0.0918x elapsed=0:00:34.05    \nframe=  382 fps= 11 q=41.4 size=    1024KiB time=00:00:03.16 bitrate=2649.1kbits/s speed=0.0916x elapsed=0:00:34.57    \nframe=  387 fps= 11 q=42.5 size=    1024KiB time=00:00:03.20 bitrate=2614.7kbits/s speed=0.0914x elapsed=0:00:35.08    \nframe=  393 fps= 11 q=37.9 size=    1024KiB time=00:00:03.25 bitrate=2574.6kbits/s speed=0.0915x elapsed=0:00:35.60    \nframe=  397 fps= 11 q=40.8 size=    1280KiB time=00:00:03.29 bitrate=3185.7kbits/s speed=0.0911x elapsed=0:00:36.11    \nframe=  403 fps= 11 q=37.8 size=    1280KiB time=00:00:03.34 bitrate=3138.0kbits/s speed=0.0912x elapsed=0:00:36.63    \nframe=  408 fps= 11 q=42.4 size=    1280KiB time=00:00:03.38 bitrate=3099.3kbits/s speed=0.0911x elapsed=0:00:37.15    \nframe=  413 fps= 11 q=37.9 size=    1280KiB time=00:00:03.42 bitrate=3061.6kbits/s speed=0.0909x elapsed=0:00:37.66    \nframe=  417 fps= 11 q=40.3 size=    1280KiB time=00:00:03.45 bitrate=3032.1kbits/s speed=0.0906x elapsed=0:00:38.18    \nframe=  422 fps= 11 q=37.4 size=    1280KiB time=00:00:03.50 bitrate=2996.0kbits/s speed=0.0904x elapsed=0:00:38.70    \nframe=  428 fps= 11 q=37.5 size=    1280KiB time=00:00:03.55 bitrate=2953.8kbits/s speed=0.0906x elapsed=0:00:39.20    \nframe=  432 fps= 11 q=40.6 size=    1280KiB time=00:00:03.58 bitrate=2926.4kbits/s speed=0.0902x elapsed=0:00:39.71    \nframe=  438 fps= 11 q=37.3 size=    1280KiB time=00:00:03.63 bitrate=2886.1kbits/s speed=0.0903x elapsed=0:00:40.24    \nframe=  443 fps= 11 q=41.9 size=    1280KiB time=00:00:03.67 bitrate=2853.4kbits/s speed=0.0902x elapsed=0:00:40.75    \nframe=  448 fps= 11 q=40.5 size=    1280KiB time=00:00:03.71 bitrate=2821.4kbits/s speed=0.0901x elapsed=0:00:41.26    \nframe=  453 fps= 11 q=37.3 size=    1280KiB time=00:00:03.75 bitrate=2790.1kbits/s speed=0.0899x elapsed=0:00:41.78    \nframe=  458 fps= 11 q=41.9 size=    1280KiB time=00:00:03.80 bitrate=2759.5kbits/s speed=0.0898x elapsed=0:00:42.29    \nframe=  463 fps= 11 q=37.2 size=    1280KiB time=00:00:03.84 bitrate=2729.6kbits/s speed=0.0897x elapsed=0:00:42.81    \nframe=  469 fps= 11 q=37.1 size=    1280KiB time=00:00:03.89 bitrate=2694.5kbits/s speed=0.0898x elapsed=0:00:43.33    \nframe=  474 fps= 11 q=41.5 size=    1280KiB time=00:00:03.93 bitrate=2666.0kbits/s speed=0.0897x elapsed=0:00:43.84    \nframe=  480 fps= 11 q=41.7 size=    1280KiB time=00:00:03.98 bitrate=2632.5kbits/s speed=0.0898x elapsed=0:00:44.36    \nframe=  486 fps= 11 q=41.0 size=    1280KiB time=00:00:04.03 bitrate=2599.9kbits/s speed=0.0899x elapsed=0:00:44.88    \nframe=  491 fps= 11 q=37.0 size=    1280KiB time=00:00:04.07 bitrate=2573.3kbits/s speed=0.0898x elapsed=0:00:45.39    \nframe=  497 fps= 11 q=36.8 size=    1280KiB time=00:00:04.12 bitrate=2542.1kbits/s speed=0.0898x elapsed=0:00:45.91    \nframe=  503 fps= 11 q=38.1 size=    1280KiB time=00:00:04.17 bitrate=2511.6kbits/s speed=0.0899x elapsed=0:00:46.43    \nframe=  508 fps= 11 q=39.6 size=    1280KiB time=00:00:04.21 bitrate=2486.8kbits/s speed=0.0898x elapsed=0:00:46.94    \nframe=  513 fps= 11 q=37.7 size=    1536KiB time=00:00:04.25 bitrate=2955.0kbits/s speed=0.0897x elapsed=0:00:47.45    \nframe=  519 fps= 11 q=36.6 size=    1536KiB time=00:00:04.30 bitrate=2920.7kbits/s speed=0.0898x elapsed=0:00:47.96    \nframe=  524 fps= 11 q=38.9 size=    1536KiB time=00:00:04.35 bitrate=2892.7kbits/s speed=0.0897x elapsed=0:00:48.48    \nframe=  529 fps= 11 q=36.3 size=    1536KiB time=00:00:04.39 bitrate=2865.3kbits/s speed=0.0896x elapsed=0:00:48.99    \nframe=  534 fps= 11 q=37.4 size=    1536KiB time=00:00:04.43 bitrate=2838.3kbits/s speed=0.0895x elapsed=0:00:49.51    \nframe=  540 fps= 11 q=37.3 size=    1536KiB time=00:00:04.48 bitrate=2806.7kbits/s speed=0.0896x elapsed=0:00:50.03    \nframe=  546 fps= 11 q=37.4 size=    1536KiB time=00:00:04.53 bitrate=2775.7kbits/s speed=0.0897x elapsed=0:00:50.54    \nframe=  551 fps= 11 q=38.2 size=    1536KiB time=00:00:04.57 bitrate=2750.4kbits/s speed=0.0896x elapsed=0:00:51.06    \nframe=  556 fps= 11 q=38.0 size=    1536KiB time=00:00:04.61 bitrate=2725.6kbits/s speed=0.0895x elapsed=0:00:51.57    \nframe=  563 fps= 11 q=36.5 size=    1536KiB time=00:00:04.67 bitrate=2691.6kbits/s speed=0.0897x elapsed=0:00:52.09    \nframe=  568 fps= 11 q=39.1 size=    1536KiB time=00:00:04.71 bitrate=2667.8kbits/s speed=0.0896x elapsed=0:00:52.61    \nframe=  573 fps= 11 q=38.8 size=    1536KiB time=00:00:04.75 bitrate=2644.5kbits/s speed=0.0896x elapsed=0:00:53.12    \nframe=  579 fps= 11 q=38.9 size=    1536KiB time=00:00:04.80 bitrate=2617.0kbits/s speed=0.0896x elapsed=0:00:53.64    \nframe=  584 fps= 11 q=39.1 size=    1536KiB time=00:00:04.85 bitrate=2594.5kbits/s speed=0.0895x elapsed=0:00:54.15    \nframe=  589 fps= 11 q=40.0 size=    1536KiB time=00:00:04.89 bitrate=2572.4kbits/s speed=0.0895x elapsed=0:00:54.67    \nframe=  594 fps= 11 q=34.9 size=    1536KiB time=00:00:04.93 bitrate=2550.7kbits/s speed=0.0894x elapsed=0:00:55.18    \n[mp4 @ 0000014baa477b80] Starting second pass: moving the moov atom to the beginning of the file\n[out#0/mp4 @ 0000014baa477a80] video:1813KiB audio:0KiB subtitle:0KiB other streams:0KiB global headers:2KiB muxing overhead: 0.595810%\nframe=  600 fps= 11 q=39.1 Lsize=    1823KiB time=00:00:04.98 bitrate=2997.5kbits/s speed=0.0897x elapsed=0:00:55.56    \nx265 [info]: frame I:      3, Avg QP:37.00  kb/s: 11476.48\nx265 [info]: frame P:    165, Avg QP:36.28  kb/s: 6030.63 \nx265 [info]: frame B:    432, Avg QP:40.52  kb/s: 1736.33 \nx265 [info]: Weighted P-Frames: Y:0.0% UV:0.0%\n\nencoded 600 frames in 55.51s (10.81 fps), 2965.96 kb/s, Avg QP:39.34\n",
  "seconds": 55.646809816360474,
  "probe_out": {}
}